<svg xmlns="http://www.w3.org/2000/svg" width="94" height="94" viewBox="0 0 94 94"><defs><mask id="ao9xb" width="2" height="2" x="-1" y="-1"><path fill="#fff" d="M12 12h70v70H12z"/><path d="M47 12c19.33 0 35 15.67 35 35S66.33 82 47 82 12 66.33 12 47s15.67-35 35-35z"/></mask><filter id="ao9xa" width="120" height="120" x="-13" y="-13" filterUnits="userSpaceOnUse"><feOffset in="SourceGraphic" result="FeOffset1023Out"/><feGaussianBlur in="FeOffset1023Out" result="FeGaussianBlur1024Out" stdDeviation="6 6"/></filter></defs><g><g opacity=".72"><g filter="url(#ao9xa)"><path fill="none" d="M47 12c19.33 0 35 15.67 35 35S66.33 82 47 82 12 66.33 12 47s15.67-35 35-35z" mask="url(&quot;#ao9xb&quot;)"/><path fill="#b0b0b0" fill-opacity=".25" d="M47 12c19.33 0 35 15.67 35 35S66.33 82 47 82 12 66.33 12 47s15.67-35 35-35z"/></g><path fill="#fff" d="M47 12c19.33 0 35 15.67 35 35S66.33 82 47 82 12 66.33 12 47s15.67-35 35-35z"/></g><g opacity=".9"><path fill="#7e5aff" d="M47 39a8 8 0 1 1 0 16 8 8 0 0 1 0-16z"/></g></g></svg>